<svg xmlns="http://www.w3.org/2000/svg" width="310" height="480" viewBox="0 0 310 480"><rect width="100%" height="100%" fill="#DDDDDD"/><path fill="#999999" d="M80.775 225.745h4.63v28.2h-2.69q-.63 0-1.05-.2-.42-.21-.81-.7l-14.72-18.8q.12 1.29.12 2.38v17.32h-4.62v-28.2h2.75q.33 0 .57.03t.43.12q.18.09.36.25.18.17.39.44l14.78 18.88q-.06-.68-.1-1.35-.04-.66-.04-1.23zm19 7.88q2.22 0 4.04.72 1.83.72 3.12 2.05 1.3 1.33 2 3.24t.7 4.27q0 2.38-.7 4.29t-2 3.25q-1.29 1.35-3.12 2.07-1.82.72-4.04.72-2.24 0-4.08-.72-1.83-.72-3.13-2.07-1.29-1.34-2.01-3.25-.71-1.91-.71-4.29 0-2.36.71-4.27.72-1.91 2.01-3.24 1.3-1.33 3.13-2.05 1.84-.72 4.08-.72m0 16.91q2.49 0 3.69-1.68t1.2-4.91q0-3.24-1.2-4.94-1.2-1.69-3.69-1.69-2.54 0-3.76 1.7-1.21 1.71-1.21 4.93 0 3.21 1.21 4.9 1.22 1.69 3.76 1.69m20.22 3.72q-2.61 0-4.01-1.47-1.39-1.47-1.39-4.07v-11.17h-2.05q-.39 0-.66-.25-.28-.26-.28-.76v-1.91l3.22-.53 1.02-5.46q.09-.39.37-.61.27-.21.7-.21h2.49v6.3h5.35v3.43h-5.35v10.84q0 .94.46 1.47.46.52 1.26.52.45 0 .75-.11.3-.1.53-.22l.4-.22q.17-.11.35-.11.21 0 .35.11.14.1.29.32l1.44 2.34q-1.05.88-2.41 1.32-1.37.45-2.83.45m23.32-14.33h3.92q1.44 0 2.52-.36 1.07-.36 1.78-1.03.71-.68 1.06-1.64.35-.97.35-2.16 0-1.13-.35-2.04-.35-.92-1.05-1.57-.7-.64-1.77-.98-1.08-.34-2.54-.34h-3.92zm-5.24-14.18h9.16q2.83 0 4.9.67 2.06.66 3.41 1.85 1.34 1.19 2 2.85.65 1.65.65 3.62 0 2.05-.68 3.76-.69 1.7-2.05 2.93-1.37 1.23-3.42 1.91-2.06.68-4.81.68h-3.92v9.93h-5.24zm32.23 7.88q2.22 0 4.05.72 1.82.72 3.12 2.05 1.29 1.33 1.99 3.24.71 1.91.71 4.27 0 2.38-.71 4.29-.7 1.91-1.99 3.25-1.3 1.35-3.12 2.07-1.83.72-4.05.72-2.24 0-4.08-.72-1.83-.72-3.13-2.07-1.29-1.34-2-3.25-.72-1.91-.72-4.29 0-2.36.72-4.27.71-1.91 2-3.24 1.3-1.33 3.13-2.05 1.84-.72 4.08-.72m0 16.91q2.5 0 3.69-1.68 1.2-1.68 1.2-4.91 0-3.24-1.2-4.94-1.19-1.69-3.69-1.69-2.54 0-3.75 1.7-1.22 1.71-1.22 4.93 0 3.21 1.22 4.9 1.21 1.69 3.75 1.69m26.85-14.43-1.09 1.73q-.2.32-.41.44-.22.13-.55.13-.35 0-.75-.2-.4-.19-.92-.44-.53-.24-1.2-.43-.68-.2-1.59-.2-1.43 0-2.24.61-.8.6-.8 1.57 0 .65.41 1.09.42.44 1.12.77.69.33 1.57.59.87.27 1.78.58t1.78.71q.88.4 1.57 1.01.7.62 1.12 1.48.42.85.42 2.06 0 1.45-.52 2.66-.52 1.22-1.53 2.11-1.02.89-2.51 1.38-1.49.5-3.44.5-1.03 0-2.02-.18-.98-.19-1.89-.52t-1.68-.78-1.35-.98l1.11-1.83q.21-.33.51-.51.29-.17.74-.17t.85.25q.4.26.92.55.53.29 1.24.55.71.25 1.8.25.86 0 1.48-.21.61-.2 1.01-.53t.59-.77q.18-.44.18-.91 0-.7-.42-1.15t-1.11-.78-1.58-.59q-.89-.27-1.81-.58-.93-.31-1.82-.73-.88-.42-1.58-1.06-.69-.65-1.11-1.58-.42-.94-.42-2.27 0-1.22.49-2.34.49-1.11 1.43-1.94.95-.82 2.36-1.32 1.42-.5 3.27-.5 2.07 0 3.76.68 1.7.69 2.83 1.8m10.51 18.15q-2.61 0-4.01-1.47-1.39-1.47-1.39-4.07v-11.17h-2.05q-.39 0-.66-.25-.27-.26-.27-.76v-1.91l3.21-.53 1.02-5.46q.1-.39.37-.61.27-.21.7-.21h2.5v6.3h5.34v3.43h-5.34v10.84q0 .94.45 1.47.46.52 1.26.52.45 0 .75-.11.31-.1.53-.22l.4-.22q.17-.11.35-.11.21 0 .35.11.14.1.29.32l1.45 2.34q-1.06.88-2.42 1.32-1.37.45-2.83.45m11.64-12.61h9.09q0-.94-.26-1.77-.27-.83-.79-1.45-.53-.63-1.34-.99t-1.88-.36q-2.09 0-3.29 1.19t-1.53 3.38m12.29 2.9h-12.38q.11 1.54.54 2.66t1.13 1.86q.7.73 1.67 1.09.96.36 2.13.36t2.02-.28q.85-.27 1.48-.6.64-.33 1.12-.6.47-.28.92-.28.61 0 .9.45l1.38 1.76q-.8.93-1.79 1.57-.99.63-2.08 1.01-1.08.38-2.2.54-1.12.15-2.17.15-2.09 0-3.88-.69-1.8-.69-3.12-2.05-1.33-1.35-2.09-3.35t-.76-4.63q0-2.05.66-3.85.66-1.81 1.9-3.14 1.24-1.34 3.02-2.12 1.79-.78 4.03-.78 1.89 0 3.49.61 1.6.6 2.75 1.76t1.81 2.85q.65 1.68.65 3.85 0 1.09-.24 1.47-.23.38-.89.38m8.99-9.4.29 2.26q.94-1.79 2.22-2.81 1.29-1.03 3.04-1.03 1.39 0 2.23.61l-.31 3.6q-.1.36-.29.5-.18.15-.49.15-.3 0-.87-.1-.58-.1-1.12-.1-.8 0-1.43.24-.62.23-1.12.67t-.88 1.06q-.38.63-.71 1.43v12.32h-4.81v-20.01h2.82q.74 0 1.04.27.29.26.39.94"/></svg>