<svg xmlns="http://www.w3.org/2000/svg" width="166" height="210" viewBox="0 0 166 210"><rect width="100%" height="100%" fill="#DDDDDD"/><path fill="#999999" d="M43.845 94.99h2.73v16.63h-1.59q-.37 0-.62-.12-.24-.12-.47-.41L35.215 100q.06.76.06 1.41v10.21h-2.72V94.99h1.62q.2 0 .34.02t.25.07.22.15q.1.09.23.26l8.71 11.13-.06-.8q-.02-.39-.02-.72zm11.2 4.65q1.31 0 2.39.42 1.07.43 1.84 1.21.76.78 1.18 1.91.41 1.13.41 2.52 0 1.4-.41 2.53-.42 1.12-1.18 1.92-.77.79-1.84 1.22-1.08.42-2.39.42-1.32 0-2.4-.42-1.08-.43-1.85-1.22-.76-.8-1.18-1.92-.42-1.13-.42-2.53 0-1.39.42-2.52t1.18-1.91q.77-.78 1.85-1.21 1.08-.42 2.4-.42m0 9.97q1.47 0 2.18-.99t.71-2.9-.71-2.91-2.18-1q-1.49 0-2.21 1.01-.72 1-.72 2.9t.72 2.89q.72 1 2.21 1m16.42-6.34v5.29q.49.59 1.06.83t1.23.24q.65 0 1.16-.24.52-.24.88-.74.37-.49.56-1.24.2-.76.2-1.78 0-1.04-.17-1.76-.17-.71-.48-1.16t-.75-.66-1.01-.21q-.88 0-1.5.38-.62.37-1.18 1.05m-.37-2.93.23 1.09q.72-.82 1.64-1.32.92-.51 2.16-.51.97 0 1.77.4.8.41 1.38 1.17.58.77.89 1.89.32 1.12.32 2.57 0 1.32-.36 2.45-.35 1.12-1.01 1.95-.67.83-1.6 1.3-.94.46-2.1.46-.99 0-1.69-.3-.7-.31-1.26-.85v4.83h-2.84V99.82h1.74q.55 0 .73.52m13.11.19.17 1.34q.55-1.06 1.31-1.66.76-.61 1.79-.61.82 0 1.31.36l-.18 2.13q-.06.2-.17.29t-.29.09q-.17 0-.51-.06t-.66-.06q-.47 0-.84.14t-.66.4q-.3.25-.52.62-.23.37-.42.84v7.27h-2.84v-11.8h1.67q.43 0 .61.16.17.15.23.55m11.29-.89q1.31 0 2.38.42 1.08.43 1.84 1.21.77.78 1.18 1.91.42 1.13.42 2.52 0 1.4-.42 2.53-.41 1.12-1.18 1.92-.76.79-1.84 1.22-1.07.42-2.38.42-1.32 0-2.41-.42-1.08-.43-1.84-1.22-.77-.8-1.19-1.92-.42-1.13-.42-2.53 0-1.39.42-2.52t1.19-1.91q.76-.78 1.84-1.21 1.09-.42 2.41-.42m0 9.97q1.47 0 2.18-.99.7-.99.7-2.9t-.7-2.91q-.71-1-2.18-1-1.5 0-2.22 1.01-.71 1-.71 2.9t.71 2.89q.72 1 2.22 1m11.66 2.01h-2.84v-9.66l-1.02-.16q-.34-.07-.54-.24-.2-.16-.2-.47v-1.17h1.76v-.87q0-1.01.3-1.82.31-.8.88-1.36.57-.57 1.38-.87.82-.3 1.84-.3.82 0 1.52.22l-.06 1.43q-.01.16-.09.26-.08.09-.21.15-.13.05-.31.07-.17.01-.36.01-.51 0-.91.11-.39.11-.67.38t-.42.71q-.14.45-.14 1.1v.78h3.07v2.03h-2.98zm4.67-11.8h2.85v11.8h-2.85zm3.24-3.44q0 .37-.15.69t-.4.57q-.24.24-.58.38-.33.14-.71.14-.37 0-.69-.14-.33-.14-.57-.38-.25-.25-.39-.57t-.14-.69q0-.38.14-.71t.39-.58q.24-.24.57-.38.32-.14.69-.14.38 0 .71.14.34.14.58.38.25.25.4.58t.15.71m2.54-1.85h2.84v17.09h-2.84zm7.93 9.83h5.36q0-.55-.16-1.04t-.47-.85q-.31-.37-.78-.58-.48-.22-1.11-.22-1.23 0-1.94.7-.71.71-.9 1.99m7.24 1.72h-7.3q.07.91.32 1.57t.67 1.09q.41.43.98.64.57.22 1.26.22t1.19-.17q.5-.16.87-.35.38-.2.66-.36t.55-.16q.35 0 .53.27l.81 1.03q-.47.55-1.06.93-.58.37-1.22.59-.64.23-1.3.32t-1.28.09q-1.23 0-2.29-.41-1.06-.4-1.84-1.2t-1.23-1.98-.45-2.73q0-1.21.39-2.27.39-1.07 1.12-1.86.73-.78 1.78-1.24 1.06-.46 2.38-.46 1.11 0 2.06.35.94.36 1.62 1.04.68.69 1.06 1.68.39 1 .39 2.27 0 .65-.14.87-.14.23-.53.23"/></svg>